<?xml version="1.0" standalone="no"?>
<!DOCTYPE svg PUBLIC "-//W3C//DTD SVG 20010904//EN"
 "http://www.w3.org/TR/2001/REC-SVG-20010904/DTD/svg10.dtd">
<svg version="1.0" xmlns="http://www.w3.org/2000/svg"
 width="600.000000pt" height="600.000000pt" viewBox="0 0 600.000000 600.000000"
 preserveAspectRatio="xMidYMid meet">
<metadata>
Created by potrace 1.11, written by Peter Selinger 2001-2013
</metadata>
<g transform="translate(0.000000,600.000000) scale(0.100000,-0.100000)"
fill="#000000" stroke="none">
<path d="M3455 5469 c-75 -19 -179 -43 -235 -55 -14 -3 -63 -14 -110 -24 -47
-10 -101 -21 -120 -25 -19 -3 -46 -7 -60 -10 -14 -3 -41 -7 -60 -10 -19 -3
-46 -7 -60 -10 -14 -3 -41 -7 -60 -10 -19 -3 -46 -7 -60 -10 -14 -2 -54 -7
-90 -11 -36 -3 -72 -7 -80 -9 -8 -2 -58 -6 -110 -10 -52 -4 -108 -9 -125 -11
-86 -11 -519 -5 -670 11 -22 2 -83 7 -135 10 l-95 7 -37 -32 c-21 -17 -44 -45
-53 -63 -18 -39 -78 -259 -100 -365 -9 -43 -24 -113 -35 -157 -30 -130 -59
-276 -66 -335 -1 -14 -12 -88 -23 -165 -37 -260 -46 -402 -46 -740 0 -244 6
-406 19 -495 2 -14 7 -52 11 -85 4 -33 8 -67 10 -75 1 -8 6 -35 10 -60 35
-231 102 -496 179 -707 l34 -93 -267 0 c-146 0 -283 -5 -305 -9 -49 -12 -103
-64 -117 -113 -6 -24 -9 -190 -7 -446 3 -398 3 -408 25 -442 28 -45 70 -69
133 -77 50 -6 50 -6 64 -53 29 -99 108 -190 211 -243 l60 -32 1320 0 c1285 0
1322 1 1365 19 111 48 204 147 236 251 17 53 17 53 66 58 63 8 108 36 136 85
22 39 22 47 22 407 l0 366 56 67 c31 37 64 77 74 88 10 12 51 66 92 120 40 55
77 103 81 109 29 37 107 158 107 166 0 5 5 9 10 9 6 0 10 4 10 10 0 5 19 40
43 77 24 38 46 75 50 83 4 8 20 38 37 65 27 45 216 424 242 485 6 14 17 39 24
55 55 131 74 179 74 187 0 6 7 24 15 41 16 36 29 73 84 237 126 375 178 578
172 667 -2 33 -54 87 -103 108 -144 60 -364 170 -478 239 -25 15 -53 29 -62
33 -10 3 -18 9 -18 14 0 5 -4 9 -10 9 -12 0 -197 117 -224 142 -11 10 -23 18
-26 18 -4 0 -20 11 -36 25 -16 14 -32 25 -36 25 -4 0 -13 6 -20 13 -7 6 -31
25 -53 41 -38 28 -224 175 -235 186 -3 3 -32 27 -65 54 -74 61 -123 106 -294
266 -111 105 -171 148 -201 149 -3 0 -41 -9 -85 -20z m5 -309 c0 -5 20 -15 45
-21 24 -6 50 -17 56 -25 14 -18 4 -18 -57 -3 -33 9 -48 9 -56 1 -17 -17 -7
-23 99 -48 85 -21 102 -29 136 -63 l39 -39 -103 24 c-57 13 -122 28 -144 33
-42 10 -55 7 -55 -13 0 -8 64 -27 182 -55 100 -23 189 -48 198 -54 35 -26 180
-150 177 -153 -1 -1 -61 11 -132 27 -363 83 -447 101 -452 96 -3 -4 -11 -31
-18 -61 -10 -42 -10 -57 -2 -64 7 -5 116 -33 242 -62 127 -28 275 -62 330 -75
55 -13 145 -33 200 -45 55 -13 114 -31 130 -41 48 -30 83 -37 -495 97 -107 24
-243 56 -302 69 -127 30 -128 30 -128 7 0 -15 73 -34 518 -136 462 -106 592
-140 579 -153 -2 -2 -71 12 -153 31 -779 181 -947 217 -955 205 -12 -21 -21
-81 -12 -89 4 -4 269 -66 588 -139 844 -193 834 -190 873 -212 46 -24 43 -24
-81 5 -56 14 -241 56 -412 95 -170 39 -457 104 -637 146 -180 41 -332 75 -337
75 -12 0 -34 -76 -27 -89 7 -11 -53 3 1046 -247 85 -20 229 -53 320 -74 91
-21 221 -51 290 -65 69 -15 127 -29 129 -32 3 -2 0 -8 -6 -14 -10 -10 -271 45
-633 132 -47 11 -193 45 -325 75 -132 29 -305 69 -385 88 -307 71 -440 99
-446 93 -16 -16 9 -34 62 -46 64 -14 387 -87 1403 -320 167 -38 305 -71 307
-73 9 -9 -18 -78 -31 -78 -7 0 -62 12 -122 26 -96 23 -283 65 -848 194 -93 22
-309 71 -479 110 -170 39 -313 67 -317 63 -4 -5 -11 -20 -14 -35 -6 -25 -4
-28 32 -36 21 -6 259 -60 528 -122 522 -119 620 -141 978 -223 125 -29 227
-57 226 -62 -1 -6 -12 -9 -23 -7 -19 3 -266 59 -361 82 -22 5 -179 42 -350 80
-342 78 -723 165 -913 209 -69 16 -125 24 -128 19 -11 -18 5 -36 38 -43 39 -8
519 -118 1461 -334 143 -33 261 -61 263 -64 3 -2 -5 -29 -17 -59 -21 -55 -21
-56 -52 -47 -34 9 -723 167 -867 199 -134 29 -603 137 -735 169 -102 25 -122
27 -131 15 -9 -11 -17 0 -40 53 -98 232 -307 409 -554 469 -76 18 -302 18
-383 -1 -174 -40 -346 -155 -456 -304 -175 -237 -211 -543 -94 -806 44 -101
91 -165 208 -285 178 -183 195 -231 195 -573 l0 -227 -135 0 -135 0 0 -200 0
-200 -105 0 c-58 0 -105 1 -105 3 0 2 -19 53 -41 113 -23 60 -42 114 -44 119
-1 6 -5 17 -8 25 -8 23 -49 162 -53 183 -2 10 -6 27 -9 37 -3 10 -8 28 -10 39
-3 12 -7 29 -10 38 -10 43 -55 273 -60 314 -3 24 -8 64 -11 89 -3 25 -7 56
-10 70 -20 123 -27 699 -11 865 4 44 10 105 13 135 6 71 41 319 55 390 5 30
14 78 19 105 17 100 45 223 86 380 l41 160 84 -5 c130 -8 643 -6 749 3 123 10
437 48 505 61 11 2 40 7 65 11 54 9 70 12 135 25 55 11 96 19 136 26 14 2 68
15 120 28 108 27 129 30 129 16z m-874 -780 c142 -41 266 -125 351 -237 62
-83 84 -127 113 -223 34 -113 37 -216 10 -323 -42 -169 -78 -228 -234 -382
-85 -84 -120 -127 -148 -180 -59 -114 -68 -172 -68 -456 l0 -249 -194 2 -195
3 -4 240 c-5 252 -14 320 -58 421 -34 78 -94 155 -177 231 -161 146 -236 309
-237 513 0 118 23 209 78 315 46 87 192 230 280 273 167 82 321 98 483 52z
m816 -484 c648 -147 981 -224 1193 -273 132 -31 264 -61 293 -66 49 -10 63
-19 44 -31 -7 -4 -89 14 -342 74 -47 11 -233 53 -415 95 -927 210 -975 221
-975 235 0 13 -19 16 202 -34z m144 -96 c170 -39 327 -75 349 -80 22 -6 189
-44 370 -85 625 -143 645 -148 645 -164 -1 -43 -9 -42 -281 20 -431 99 -714
163 -1069 244 -184 42 -335 77 -336 78 -1 1 -4 14 -8 30 -5 20 -3 27 8 27 8 0
153 -32 322 -70z m-141 -103 c61 -14 218 -50 350 -80 132 -31 353 -81 490
-113 476 -108 615 -141 621 -147 3 -3 -1 -20 -10 -38 -9 -18 -16 -38 -16 -46
0 -7 -6 -16 -13 -19 -10 -3 -486 100 -782 171 -33 8 -148 34 -255 59 -107 24
-279 63 -382 87 l-188 43 0 59 0 60 38 -6 c20 -3 87 -17 147 -30z m437 -267
c713 -163 962 -221 965 -224 8 -7 -12 -46 -23 -46 -14 0 -250 52 -454 100 -69
16 -285 66 -480 110 -691 157 -658 148 -652 176 2 13 10 24 17 24 8 0 289 -63
627 -140z m83 -121 c385 -88 733 -167 773 -176 48 -11 72 -21 72 -30 0 -9 -7
-12 -17 -9 -10 3 -61 15 -113 26 -52 11 -194 43 -315 71 -121 27 -258 59 -305
70 -47 10 -150 34 -230 53 -80 19 -251 58 -381 87 -171 39 -235 57 -232 66 3
7 14 11 27 8 11 -3 336 -78 721 -166z m-360 16 c160 -36 319 -72 355 -80 36
-9 171 -39 300 -69 129 -30 298 -69 375 -86 77 -18 143 -34 146 -36 4 -2 -5
-28 -20 -57 -26 -53 -26 -54 -61 -45 -19 4 -174 40 -345 78 -170 39 -418 96
-550 126 -132 30 -287 65 -345 79 -58 13 -148 34 -200 46 -52 12 -100 24 -106
28 -8 4 -2 23 18 58 l29 51 57 -13 c31 -7 188 -43 347 -80z m-254 -140 c134
-30 300 -69 369 -85 69 -16 235 -55 370 -85 135 -31 326 -74 425 -96 99 -23
182 -43 184 -45 13 -13 -16 -16 -62 -7 -52 10 -487 109 -802 183 -93 21 -222
51 -285 65 -63 15 -180 41 -260 60 -80 18 -160 36 -178 40 -18 4 -30 11 -26
16 7 13 -3 15 265 -46z m-173 -25 c70 -16 287 -66 482 -110 449 -103 855 -196
943 -216 50 -12 67 -20 65 -32 -7 -37 -32 -36 -219 7 -101 24 -269 62 -374 86
-248 57 -838 192 -940 216 -101 23 -105 23 -105 -1 0 -11 3 -20 7 -20 4 0 192
-43 418 -94 225 -52 550 -127 720 -166 171 -39 343 -78 383 -87 58 -13 70 -19
60 -29 -10 -10 -47 -5 -183 27 -93 22 -219 50 -280 64 -60 13 -189 42 -285 65
-96 23 -195 45 -220 50 -25 5 -142 32 -260 60 -335 78 -361 83 -373 71 -6 -6
-8 -13 -5 -16 6 -7 235 -61 683 -164 171 -38 439 -100 596 -136 158 -36 289
-65 293 -65 10 0 6 -24 -7 -42 -12 -15 -20 -14 -112 8 -55 13 -219 51 -365 84
-146 33 -314 71 -375 85 -60 14 -148 34 -195 44 -47 11 -173 39 -280 64 -107
25 -209 48 -226 51 l-31 7 -13 -61 c-15 -72 -16 -71 68 -89 31 -7 113 -26 182
-42 209 -48 646 -149 759 -173 134 -30 460 -105 484 -112 20 -6 21 -13 2 -37
-13 -18 -23 -17 -242 33 -125 28 -273 62 -328 75 -55 13 -190 44 -300 69 -110
25 -288 65 -395 90 -281 64 -260 61 -260 38 0 -15 12 -21 58 -31 31 -7 122
-28 202 -47 80 -18 235 -54 345 -79 110 -25 238 -54 285 -65 47 -11 195 -45
330 -76 292 -66 280 -63 260 -74 -10 -5 -48 -1 -100 11 -47 11 -152 36 -235
54 -82 19 -289 66 -460 105 -504 116 -659 151 -679 153 -13 1 -21 -7 -27 -26
-9 -35 -4 -38 151 -73 63 -14 239 -54 390 -89 151 -34 376 -86 500 -114 124
-28 267 -61 319 -74 l93 -22 -19 -24 -20 -25 -184 42 c-101 23 -341 78 -534
122 -658 152 -707 162 -718 151 -7 -7 -7 -14 -2 -20 6 -4 91 -27 190 -49 99
-23 340 -78 535 -122 535 -122 664 -151 678 -156 10 -3 3 -20 -24 -57 -21 -28
-39 -53 -39 -55 -2 -2 -172 34 -295 63 -54 12 -83 19 -390 89 -85 19 -202 46
-260 60 -246 57 -420 96 -425 96 -3 0 -5 -8 -5 -18 0 -20 37 -29 1267 -309 81
-18 82 -21 20 -87 l-32 -35 -280 64 c-154 36 -338 78 -410 95 -71 16 -184 42
-250 58 l-120 27 -3 53 -3 52 -135 0 -134 0 0 233 c0 333 19 396 158 531 41
39 79 76 86 83 14 16 -2 17 144 -17z m605 -1140 c170 -38 310 -70 313 -70 3 0
2 -4 -1 -10 -3 -5 -44 -10 -91 -10 -88 0 -94 1 -694 139 l-245 56 -3 31 -3 31
208 -48 c114 -27 347 -80 516 -119z m-868 35 l0 -125 -465 0 -465 0 -3 125 -3
125 468 0 468 0 0 -125z m350 -51 c88 -20 194 -45 235 -55 l75 -18 -50 0 c-70
0 -457 90 -463 108 -3 10 1 12 19 8 13 -4 96 -23 184 -43z m-25 -58 l55 -14
-117 -1 -118 -1 0 29 0 29 63 -14 c34 -8 87 -21 117 -28z m880 -561 l0 -395
-1670 0 -1670 0 0 395 0 395 1670 0 1670 0 0 -395z m-210 -549 c0 -39 -75
-128 -134 -159 l-41 -22 -1285 0 -1285 0 -41 22 c-59 31 -134 120 -134 159 0
2 657 4 1460 4 803 0 1460 -2 1460 -4z"/>
</g>
</svg>
