<svg xmlns="http://www.w3.org/2000/svg" viewBox="0 -150 841.9 500">
    <g fill="#61DAFB">
       <path id="STAMPSAFE" class="cls-1" d="M103.68,337.875V168.25H86.43V337.875h17.25Zm34.5,0V168.25H112.305V337.875H138.18Zm17.25,0V168.25h-8.625V337.875h8.625Zm-9.488,89.987a20.77,20.77,0,0,0,7.475-7.187,19.282,19.282,0,0,0,2.3-9.2,16.489,16.489,0,0,0-3.45-10.638q-3.739-4.029-13.225-8.05a53.15,53.15,0,0,1-10.35-4.887,13.8,13.8,0,0,1-4.887-4.313,12.078,12.078,0,0,1-1.15-5.462,8.988,8.988,0,0,1,3.162-6.9q2.871-2.877,8.05-2.875a24.22,24.22,0,0,1,6.9.862,14.718,14.718,0,0,1,5.463,3.45,2.773,2.773,0,0,1,1.15,1.438,1.952,1.952,0,0,1,.575,1.437,2.256,2.256,0,0,1,.287.863l0.575,0.575,4.888-6.613a31.936,31.936,0,0,0-8.338-6.037,23.991,23.991,0,0,0-10.35-2.3q-9.2,0-14.662,4.6a15.009,15.009,0,0,0-5.463,12.075,16.747,16.747,0,0,0,4.025,10.925q4.313,4.885,14.088,8.625a75.386,75.386,0,0,1,9.775,4.887,12.635,12.635,0,0,1,4.312,4.025,10.1,10.1,0,0,1,1.438,5.463,10.35,10.35,0,0,1-4.025,8.05,15.354,15.354,0,0,1-9.775,3.163,22.168,22.168,0,0,1-14.95-5.176,3.255,3.255,0,0,1-1.15-1.15,2.762,2.762,0,0,1-.575-1.437,4.677,4.677,0,0,1-.288-1.15l-0.862-.288-0.288.863-4.025,6.612q8.046,8.625,20.988,8.625a25.118,25.118,0,0,0,12.362-2.875h0Zm52.609-89.987V168.25H181.3V337.875h17.25Zm34.5,0V168.25H207.176V337.875h25.875Zm34.5,0V168.25h-8.625V337.875h8.625Zm-43.413,91.713H231.9V369.5h19.55v-6.613h-46V369.5h18.687v60.088ZM284.8,337.875V168.25h-8.625V337.875H284.8Zm17.25,0V168.25h-8.625V337.875h8.625Zm43.125,0V168.25h-17.25V337.875h17.25Zm-4.313,91.713h7.763L323.9,361.737h-0.863L298.6,429.588h7.475l6.612-19.551h21.563Zm-26.162-25.3,8.912-25.3,8.625,25.3H314.7Zm64.971-66.412V168.25h-8.625V337.875h8.625Zm34.5,0V168.25H388.293V337.875h25.875Zm25.875,0V168.25h-17.25V337.875h17.25Zm-43.987,91.713h6.9V379.562L416.468,406.3h2.875l14.375-27.025v50.313h7.188v-66.7h-5.75l-16.675,32.775-16.388-32.775h-6.037v66.7Zm95.733-91.713V168.25H465.914V337.875h25.875Zm34.5,0V168.25H500.414V337.875h25.875Zm25.875,0V168.25h-17.25V337.875h17.25Zm-59.225,91.713H500.7V400.262h14.087q10.35,0,15.525-5.175a17.912,17.912,0,0,0,5.175-13.225q0-8.342-5.462-13.512-5.175-5.465-15.813-5.463H492.939v66.7ZM500.7,393.65V370.075h13.512q6.61,0,10.063,3.45a11.117,11.117,0,0,1,3.45,8.625q0,5.459-3.45,8.337-3.168,3.16-10.35,3.163H500.7Zm77.333-55.775V168.25h-17.25V337.875h17.25Zm34.5,0V168.25H586.66V337.875h25.875Zm17.25,0V168.25H621.16V337.875h8.625ZM620.3,427.862a20.77,20.77,0,0,0,7.475-7.187,19.282,19.282,0,0,0,2.3-9.2,16.489,16.489,0,0,0-3.45-10.638q-3.74-4.029-13.225-8.05a53.15,53.15,0,0,1-10.35-4.887,13.8,13.8,0,0,1-4.888-4.313,12.078,12.078,0,0,1-1.15-5.462,8.989,8.989,0,0,1,3.163-6.9q2.871-2.877,8.05-2.875a24.22,24.22,0,0,1,6.9.862,14.706,14.706,0,0,1,5.462,3.45,2.773,2.773,0,0,1,1.15,1.438,1.952,1.952,0,0,1,.575,1.437,2.244,2.244,0,0,1,.288.863l0.575,0.575,4.887-6.613a31.931,31.931,0,0,0-8.337-6.037,23.991,23.991,0,0,0-10.35-2.3q-9.2,0-14.663,4.6a15.009,15.009,0,0,0-5.462,12.075,16.747,16.747,0,0,0,4.025,10.925q4.313,4.885,14.087,8.625a75.319,75.319,0,0,1,9.775,4.887,12.64,12.64,0,0,1,4.313,4.025,10.1,10.1,0,0,1,1.437,5.463,10.35,10.35,0,0,1-4.025,8.05,15.352,15.352,0,0,1-9.775,3.163,22.168,22.168,0,0,1-14.95-5.176,3.264,3.264,0,0,1-1.15-1.15,2.771,2.771,0,0,1-.575-1.437,4.658,4.658,0,0,1-.287-1.15l-0.863-.288-0.287.863-4.025,6.612q8.046,8.625,20.987,8.625a25.119,25.119,0,0,0,12.363-2.875h0Zm43.984-89.987V168.25h-8.625V337.875h8.625Zm17.25,0V168.25h-8.625V337.875h8.625Zm43.125,0V168.25h-17.25V337.875h17.25Zm-4.313,91.713h7.763l-24.725-67.851h-0.863l-24.437,67.851h7.475l6.612-19.551h21.563Zm-26.162-25.3,8.912-25.3,8.625,25.3H694.182Zm64.971-66.412V168.25h-8.625V337.875h8.625Zm43.125,0V168.25h-17.25V337.875h17.25Zm34.5,0V168.25h-8.625V337.875h8.625Zm-57.213,91.713h7.475V396.812h25.013v-6.325H787.04V369.5H817.8v-6.613H779.565v66.7Zm74.459-91.713V168.25H845.4V337.875h8.625Zm43.125,0V168.25H879.9V337.875h17.25Zm17.25,0V168.25h-8.625V337.875H914.4Zm-41.975,91.713h40.537v-6.613H879.324V398.25H907.5v-6.9H879.324V369.5h33.925v-6.613H872.424v66.7Z" transform="translate(-86.438 -168.25)"/>
    </g>
</svg>
